<svg xmlns="http://www.w3.org/2000/svg" xmlns:xlink="http://www.w3.org/1999/xlink" style="isolation:isolate;border: 1px solid;" viewBox="0 0 1080 1080" width="1080px" height="1080px">
    <defs>
        <clipPath id="_clipPath_Fkw3mqH593agsaeRuPgwlZnKpE3msVKZ">
            <rect width="1080" height="1080" />
        </clipPath>
    </defs>
    <g clip-path="url(#_clipPath_Fkw3mqH593agsaeRuPgwlZnKpE3msVKZ)">
        <g clip-path="url(#_clipPath_FP2N16DngWrXCFfAQgVOrAAa0X6Ggf8j)">
            <text transform="matrix(4.613,0,0,4.613,368.381,190.173)" style="font-family:'Open Sans';font-weight:700;font-size:12px;font-style:normal;fill:#444444;stroke:none;">Número total </text>
            <text transform="matrix(4.613,0,0,4.613,211.407,265.565)" style="font-family:'Open Sans';font-weight:700;font-size:12px;font-style:normal;fill:#444444;stroke:none;">de vacinas administradas</text>
        </g>
        <defs>
            <clipPath id="_clipPath_FP2N16DngWrXCFfAQgVOrAAa0X6Ggf8j">
                <rect x="0" y="0" width="155" height="32.684" transform="matrix(4.613,0,0,4.613,210.109,131)" />
            </clipPath>
        </defs>
        <g clip-path="url(#_clipPath_1LsX9CVX88C0XzL46QnBvmieLypEaGbx)">
            <text transform="matrix(4.613,0,0,4.613,220.692,725.173)" style="font-family:'Open Sans';font-weight:700;font-size:12px;font-style:normal;fill:#01ae97;stroke:none;">+2,344 </text>
            <text transform="matrix(4.613,0,0,4.613,409.132,725.173)" style="font-family:'Open Sans';font-weight:400;font-size:12px;font-style:normal;fill:#444444;stroke:none;">que no dia anterior</text>
        </g>
        <defs>
            <clipPath id="_clipPath_1LsX9CVX88C0XzL46QnBvmieLypEaGbx">
                <rect x="0" y="0" width="151" height="16.342" transform="matrix(4.613,0,0,4.613,219.336,666)" />
            </clipPath>
        </defs>
        <g clip-path="url(#_clipPath_G6aC3ZuhD6rpGYwzDWeFASLFHATKeuji)">
            <text transform="matrix(3.959,0,0,3.959,257.784,979.083)" style="font-family:'Open Sans';font-weight:400;font-size:12px;font-style:normal;fill:#515151;stroke:none;">Dado até 28/01/01 00:00:00</text>
        </g>
        <defs>
            <clipPath id="_clipPath_G6aC3ZuhD6rpGYwzDWeFASLFHATKeuji">
                <rect x="0" y="0" width="157" height="16.342" transform="matrix(3.959,0,0,3.959,256.899,928.309)" />
            </clipPath>
        </defs>
        <g>
            <text xmlns="http://www.w3.org/2000/svg" text-anchor="middle" style="font-family:'Open Sans';font-weight:700;font-size: 250px;font-style:normal;fill:#01ae97;stroke:none;" x="540px" y="520">a</text>
        </g>
        <defs>
            <clipPath id="_clipPath_EwzncVAt9a9KW34WaBD8lNnx4lxc1Vlz">
                <rect x="0" y="0" width="234.098" height="69.453" transform="matrix(4.613,0,0,4.613,0,296.194)" />
            </clipPath>
        </defs>
    </g>
</svg>