<?xml version="1.0" encoding="UTF-8" standalone="no"?><!-- Generator: Gravit.io --><svg xmlns="http://www.w3.org/2000/svg" xmlns:xlink="http://www.w3.org/1999/xlink" style="isolation:isolate" viewBox="1195.467 49.913 413.442 237.816" width="413.442pt" height="237.816pt"><g><path d=" M 1324.46 206.605 C 1323.651 207.664 1323.216 209.78 1323.343 211.078 C 1322.66 212.196 1321.303 213.19 1320.74 214.22 C 1319.558 216.384 1320.297 219.297 1319.531 221.473 C 1319.39 221.874 1318.536 222.72 1318.322 223.165 C 1316.531 226.891 1318.177 230.443 1319.717 233.922 C 1324.086 236.66 1327.527 241.273 1331.339 244.68 C 1333.172 246.318 1335.463 248.379 1337.569 249.637 C 1338.686 250.303 1340.376 250.582 1341.382 251.329 C 1342.814 252.393 1344.363 254.198 1345.752 255.438 C 1347.684 257.165 1350.275 258.286 1352.167 260.032 C 1357.206 264.681 1364.985 272.118 1371.6 274.174 C 1377.503 276.009 1380.867 272.076 1384.152 271.878 C 1385.744 271.781 1387.513 272.289 1389.08 272.119 C 1390.862 271.927 1392.052 271.271 1394.008 271.635 C 1394.917 272.983 1396.519 273.564 1397.913 274.254 C 1400.294 275.434 1402.01 277.102 1404.794 277.438 C 1407.382 277.749 1410.367 277.292 1412.884 278.042 C 1413.509 278.228 1414.121 278.784 1414.743 279.009 C 1416.831 279.767 1419.17 279.896 1421.252 280.822 C 1424.546 282.287 1427.545 287.298 1430.828 287.591 C 1432.26 286.345 1434.297 285.024 1436.222 284.811 C 1440.041 284.388 1442.812 288.014 1446.914 287.711 C 1449.163 287.546 1450.938 286.115 1453.05 285.657 L 1454.724 285.496 C 1456.613 285.314 1458.544 285.68 1460.49 285.536 C 1462.362 285.399 1464.128 284.908 1465.975 284.73 L 1467.648 284.569 C 1469.03 284.608 1470.27 285.019 1471.739 284.932 C 1475.775 284.694 1479.087 281.506 1482.804 280.218 C 1486.115 279.07 1489.671 280.042 1493.032 279.614 C 1494.339 279.447 1498.694 276.647 1499.447 275.504 C 1502.807 274.525 1514.138 273.726 1517.671 273.811 C 1520.22 273.873 1522.48 274.801 1525.11 274.416 C 1528.633 270.471 1540.036 274.723 1545.101 267.043 C 1547.521 263.371 1547.874 253.463 1548.541 248.831 C 1548.785 247.139 1550.258 246.23 1550.214 243.955 C 1550.177 241.961 1548.892 239.364 1548.355 237.428 C 1547.952 235.976 1547.944 234.227 1547.425 232.836 C 1545.489 227.644 1535.678 221.333 1530.131 222.198 C 1528.183 222.502 1526.269 224.286 1524.552 224.857 L 1522.941 225.019 C 1521.869 225.125 1522.396 225.167 1521.36 224.898 C 1518.969 224.276 1517.237 224.915 1514.882 224.857 C 1510.806 224.758 1506.637 223.281 1502.516 223.165 C 1500.287 223.102 1498.145 224.065 1495.914 224.011 C 1492.594 223.931 1489.917 221.961 1486.523 222.681 C 1483.858 223.247 1481.551 225.15 1479.085 226.066 C 1478.141 226.417 1477.139 226.431 1476.172 226.832 L 1474.808 227.395 C 1473.714 228.107 1473.026 229.145 1471.739 229.813 C 1469.434 231.013 1465.731 230.919 1464.301 233.318 C 1462.114 234.032 1459.763 234.068 1457.607 234.769 C 1451.875 236.632 1445.543 237.036 1439.661 235.252 C 1438.414 233.704 1436.729 232.287 1436.222 230.297 L 1433.803 229.934 C 1430.111 231.299 1419.487 238.042 1417.346 238.274 C 1414.85 238.545 1412.979 236.682 1410.465 236.703 C 1405.859 239.681 1400.171 236.45 1395.682 235.252 C 1392.937 234.521 1389.954 234.406 1387.221 233.56 C 1385.928 233.16 1384.482 232.13 1383.13 231.989 C 1380.721 231.738 1378.129 232.709 1375.691 231.626 C 1374.54 231.115 1372.301 228.974 1371.414 228 C 1367.922 224.159 1371.012 221.083 1369.74 217 C 1367.609 215.643 1365.165 213.912 1363.232 212.286 C 1362.272 211.48 1361.44 210.21 1360.443 209.506 C 1357.935 207.737 1353.048 206.941 1350.121 205.88 C 1348.041 205.125 1346.437 203.585 1344.078 203.462 C 1336.608 203.073 1335.815 210.98 1327.806 206.121 L 1324.46 206.605 Z " fill-rule="evenodd" fill="rgb(1,174,151)"/><path d=" M 1494.544 82.733 C 1493.933 85.481 1494.133 89.448 1497.241 90.589 C 1497.928 91.795 1498.403 93.445 1498.542 94.82 C 1501.28 97.762 1505.742 102.011 1509.421 103.644 C 1510.853 104.28 1511.861 104.395 1513.232 105.337 C 1514.947 106.513 1516.105 108.354 1517.696 109.446 C 1520.073 111.077 1523.925 111.829 1526.715 112.347 C 1529.779 112.916 1537.736 111.728 1539.732 113.919 C 1540.024 115.159 1540.506 116.389 1541.034 117.545 C 1542.294 118.102 1544.137 118.333 1545.497 118.149 C 1546.351 117.397 1547.076 116.059 1547.45 115.006 L 1549.123 113.919 C 1554.661 117.92 1554.611 115.188 1559.63 115.732 C 1560.935 116.404 1561.663 117.496 1562.792 118.271 C 1565.518 120.141 1570.074 121.677 1573.205 120.566 C 1575.205 119.857 1576.888 118.262 1579.062 118.149 C 1582.414 117.975 1584.259 120.607 1587.431 120.446 C 1591.086 120.26 1593.917 117.237 1597.194 116.215 C 1600.632 113.048 1598.167 106.78 1598.403 102.798 C 1600.269 98.106 1608.349 98.092 1608.909 94.095 C 1607.555 89.63 1602.92 89.748 1601.842 86.964 C 1601.525 85.194 1602.862 83.417 1604.26 82.491 L 1604.725 80.194 C 1604.398 78.966 1603.678 77.549 1602.865 76.568 L 1600.913 75.601 C 1600.065 74.741 1599.372 72.926 1599.332 71.734 C 1598.708 70.743 1597.119 69.686 1595.985 69.436 C 1595.095 68.537 1594.317 66.936 1594.125 65.689 C 1593.093 64.844 1590.783 64.687 1589.57 65.085 C 1588.101 63.964 1580.594 59.362 1579.062 58.8 C 1576.898 58.005 1574.656 58.351 1572.461 57.107 C 1571.143 56.36 1570.225 55.38 1568.556 55.294 C 1567.768 55.254 1566.833 55.697 1566.046 55.657 C 1563.19 55.511 1560.218 53.556 1557.399 52.998 C 1556.309 53.706 1554.166 53.891 1552.935 53.602 C 1549.655 49.898 1522.198 49.369 1516.766 50.338 C 1510.995 51.369 1505.394 55.212 1499.657 55.899 C 1498.821 56.943 1497.714 57.697 1496.869 58.679 L 1496.124 59.807 C 1495.979 60.027 1495.859 60.131 1495.753 60.371 C 1495.006 62.058 1494.773 63.307 1493.707 64.924 L 1492.963 66.052 C 1492.365 67.754 1492.89 69.689 1492.591 71.371 C 1492.481 71.995 1491.912 72.677 1491.754 73.305 C 1490.886 76.787 1492.578 79.935 1494.544 82.733 Z " fill-rule="evenodd" fill="rgb(1,174,151)"/><path d=" M 1229.321 157.963 C 1234.357 159.575 1239.101 153.666 1244.353 154.143 C 1249.469 158.848 1255.348 154.038 1260.853 155.025 C 1266.853 159.786 1269.625 157.523 1276.222 157.523 C 1279.678 157.523 1283.173 158.111 1286.695 158.111 C 1294.88 158.111 1304.546 156.196 1306.961 166.142 C 1307.55 168.563 1308.145 170.698 1307.865 173.243 L 1309.561 174.859 C 1319.794 176.721 1325.764 160.385 1333.746 158.257 C 1335.057 157.909 1350.225 158.325 1351.602 158.698 C 1357.735 160.359 1359.779 163.102 1367.423 162.517 C 1368.234 163.671 1370.328 164.766 1371.718 164.869 C 1376.001 163.39 1381.765 163.568 1386.297 163.693 C 1387.939 162.246 1392.201 158.641 1393.416 157.376 C 1394.136 155.838 1394.185 153.088 1393.642 151.499 C 1391.622 149.876 1391.093 147.344 1389.348 145.623 C 1388.15 144.442 1386.381 144.037 1385.053 143.125 C 1382.91 141.655 1382.373 139.1 1379.854 137.983 C 1374.032 135.399 1368.426 139.115 1362.677 138.423 C 1359.404 138.03 1354.753 137.194 1351.828 135.633 C 1350.462 134.904 1349.132 133.567 1347.533 133.282 C 1346.485 133.095 1345.213 133.41 1344.143 133.282 C 1335.883 132.287 1332.183 129.136 1326.286 124.026 C 1325.078 122.979 1324.12 121.57 1322.557 120.941 C 1320.802 120.234 1319.096 120.258 1317.358 119.178 C 1316.003 117.17 1314.694 115.095 1313.742 112.86 L 1311.369 111.684 C 1301.097 114.716 1300.583 103.09 1291.817 105.514 C 1290.109 102.507 1287.808 98.679 1284.924 96.7 C 1275.839 90.466 1256.395 83.917 1245.483 82.008 C 1239.204 80.909 1234.487 83.881 1228.192 81.714 C 1226.373 82.052 1224.847 83.256 1223.219 83.624 C 1221.405 84.033 1219.248 83.19 1217.455 83.33 C 1209.516 83.95 1201.115 91.536 1196.209 97.14 C 1194.8 98.75 1195.652 110.675 1196.661 113.007 C 1197.31 114.508 1198.725 115.674 1199.148 117.415 C 1199.646 119.468 1198.99 121.579 1199.148 123.585 C 1199.42 127.028 1201.72 127.376 1202.877 130.05 C 1204.421 133.619 1203.854 136.448 1206.606 139.893 C 1208.754 142.583 1212.124 143.497 1214.404 145.77 C 1214.94 146.303 1215.218 147.304 1215.761 147.826 C 1218.449 150.418 1223.319 151.434 1226.157 154.292 C 1227.312 155.453 1227.946 156.888 1229.321 157.963 Z " fill-rule="evenodd" fill="rgb(1,174,151)"/></g></svg>