<?xml version="1.0" encoding="UTF-8" standalone="no"?>
<!-- Generator: Gravit.io -->
<svg xmlns="http://www.w3.org/2000/svg" xmlns:xlink="http://www.w3.org/1999/xlink" style="isolation:isolate" viewBox="0 0 415.959 237.813" width="415.959pt" height="237.813pt">
    <defs>
        <clipPath id="_clipPath_b1iuCHO1RCzXvhHdaZwMqe7XQdy1i9dp">
            <rect />
        </clipPath>
    </defs>
    <g clip-path="url(#_clipPath_b1iuCHO1RCzXvhHdaZwMqe7XQdy1i9dp)">
        <path d=" M 289.151 192.246 C 288.697 192.841 288.452 194.029 288.524 194.758 C 288.141 195.386 287.378 195.944 287.062 196.523 C 286.398 197.738 286.813 199.375 286.383 200.597 C 286.304 200.822 285.824 201.297 285.704 201.547 C 284.697 203.64 285.622 205.635 286.487 207.59 C 288.941 209.128 290.874 211.718 293.016 213.633 C 294.045 214.553 295.332 215.71 296.515 216.416 C 297.143 216.791 298.091 216.948 298.656 217.367 C 299.461 217.965 300.331 218.979 301.111 219.675 C 302.197 220.645 303.652 221.275 304.715 222.255 C 307.545 224.867 311.914 229.044 315.63 230.199 C 318.946 231.23 320.836 229.021 322.681 228.909 C 323.575 228.855 324.569 229.14 325.449 229.045 C 326.45 228.937 327.118 228.569 328.217 228.773 C 328.728 229.53 329.628 229.857 330.41 230.244 C 331.748 230.907 332.711 231.844 334.275 232.032 C 335.729 232.207 337.406 231.951 338.819 232.372 C 339.17 232.476 339.514 232.789 339.864 232.915 C 341.037 233.341 342.351 233.413 343.52 233.934 C 345.37 234.757 347.055 237.571 348.899 237.736 C 349.703 237.036 350.847 236.294 351.928 236.174 C 354.074 235.937 355.63 237.973 357.934 237.803 C 359.197 237.71 360.195 236.907 361.381 236.649 L 362.321 236.559 C 363.382 236.457 364.467 236.662 365.56 236.581 C 366.612 236.504 367.604 236.229 368.641 236.129 L 369.581 236.038 C 370.357 236.06 371.054 236.291 371.879 236.242 C 374.146 236.108 376.006 234.318 378.094 233.594 C 379.953 232.949 381.951 233.495 383.839 233.255 C 384.573 233.161 387.019 231.589 387.443 230.946 C 389.33 230.396 395.695 229.948 397.679 229.996 C 399.111 230.03 400.38 230.552 401.857 230.335 C 403.836 228.119 410.241 230.508 413.086 226.194 C 414.446 224.131 414.644 218.566 415.019 215.964 C 415.156 215.013 415.983 214.503 415.958 213.225 C 415.937 212.105 415.216 210.646 414.914 209.559 C 414.688 208.744 414.683 207.761 414.392 206.979 C 413.304 204.063 407.793 200.518 404.678 201.004 C 403.583 201.175 402.508 202.177 401.544 202.497 L 400.639 202.589 C 400.037 202.648 400.333 202.672 399.751 202.52 C 398.408 202.171 397.435 202.53 396.112 202.497 C 393.823 202.442 391.481 201.612 389.166 201.547 C 387.914 201.512 386.711 202.053 385.458 202.023 C 383.593 201.978 382.089 200.871 380.183 201.276 C 378.686 201.594 377.39 202.662 376.005 203.177 C 375.475 203.374 374.912 203.382 374.369 203.607 L 373.603 203.924 C 372.988 204.323 372.602 204.906 371.879 205.281 C 370.584 205.955 368.504 205.903 367.701 207.25 C 366.472 207.651 365.152 207.672 363.941 208.065 C 360.721 209.112 357.164 209.339 353.86 208.337 C 353.16 207.467 352.214 206.671 351.928 205.553 L 350.57 205.35 C 348.496 206.116 342.528 209.904 341.326 210.034 C 339.924 210.186 338.873 209.14 337.461 209.152 C 334.873 210.825 331.679 209.009 329.157 208.337 C 327.615 207.926 325.94 207.862 324.405 207.386 C 323.678 207.162 322.866 206.583 322.106 206.504 C 320.754 206.363 319.298 206.908 317.928 206.3 C 317.282 206.013 316.024 204.81 315.526 204.263 C 313.564 202.106 315.3 200.378 314.586 198.085 C 313.388 197.322 312.016 196.35 310.93 195.437 C 310.391 194.984 309.923 194.271 309.363 193.875 C 307.955 192.881 305.209 192.434 303.566 191.838 C 302.397 191.414 301.496 190.549 300.171 190.48 C 295.975 190.262 295.53 194.703 291.031 191.974 L 289.151 192.246 Z " fill-rule="evenodd" fill="rgb(1,174,151)" />
        <path d=" M 309.131 115.304 C 308.788 116.848 308.9 119.077 310.646 119.717 C 311.032 120.395 311.299 121.321 311.377 122.094 C 312.915 123.746 315.421 126.133 317.488 127.05 C 318.292 127.408 318.858 127.472 319.628 128.001 C 320.592 128.662 321.242 129.696 322.136 130.31 C 323.471 131.225 325.634 131.648 327.202 131.939 C 328.923 132.259 333.392 131.591 334.513 132.822 C 334.677 133.518 334.948 134.209 335.245 134.859 C 335.952 135.171 336.987 135.301 337.751 135.198 C 338.231 134.775 338.639 134.024 338.849 133.433 L 339.788 132.822 C 342.899 135.069 342.871 133.535 345.69 133.84 C 346.423 134.218 346.832 134.831 347.466 135.266 C 348.997 136.317 351.556 137.179 353.315 136.556 C 354.439 136.157 355.384 135.262 356.605 135.198 C 358.488 135.1 359.524 136.579 361.306 136.488 C 363.359 136.383 364.949 134.686 366.79 134.112 C 368.721 132.333 367.337 128.812 367.469 126.575 C 368.517 123.94 373.056 123.931 373.37 121.687 C 372.61 119.179 370.006 119.245 369.401 117.681 C 369.223 116.687 369.974 115.689 370.759 115.169 L 371.02 113.878 C 370.836 113.188 370.432 112.393 369.976 111.842 L 368.879 111.299 C 368.403 110.815 368.013 109.796 367.991 109.126 C 367.641 108.57 366.748 107.976 366.111 107.836 C 365.611 107.331 365.174 106.431 365.066 105.731 C 364.486 105.256 363.189 105.168 362.507 105.392 C 361.683 104.762 357.466 102.177 356.605 101.861 C 355.39 101.414 354.131 101.609 352.897 100.91 C 352.157 100.491 351.641 99.94 350.704 99.892 C 350.261 99.869 349.736 100.118 349.294 100.096 C 347.69 100.014 346.021 98.916 344.437 98.602 C 343.825 99 342.621 99.104 341.93 98.941 C 340.087 96.861 324.665 96.564 321.613 97.108 C 318.372 97.687 315.226 99.846 312.003 100.232 C 311.533 100.818 310.912 101.242 310.437 101.793 L 310.019 102.427 C 309.937 102.55 309.87 102.609 309.81 102.744 C 309.39 103.691 309.26 104.393 308.661 105.301 L 308.243 105.935 C 307.907 106.891 308.202 107.978 308.034 108.922 C 307.972 109.273 307.653 109.656 307.564 110.009 C 307.077 111.965 308.027 113.733 309.131 115.304 Z " fill-rule="evenodd" fill="rgb(1,174,151)" />
        <path d=" M 190.626 23.388 C 191.125 32.025 186.027 29.129 185.103 35.136 C 185.064 35.391 184.91 37.218 184.936 37.421 C 185.313 40.448 192.087 52.359 195.228 52.651 C 196.191 52.424 197.455 51.849 198.157 51.128 C 200.561 51.839 203.164 52.595 205.522 53.412 C 207.168 53.983 209.189 55.479 210.793 55.806 L 212.467 55.806 C 218.977 55.806 217.867 55.304 221.672 51.346 C 222.307 50.685 224.109 48.941 224.433 48.191 C 225.31 46.163 224.55 41.967 223.178 40.25 C 222.013 38.791 220.238 38.045 218.826 36.877 C 217.014 35.377 215.619 33.373 213.805 31.873 C 212.351 30.67 210.343 30.419 209.287 28.827 C 208.181 27.159 208.199 24.961 207.279 23.17 L 205.522 22.517 L 203.513 23.062 C 198.229 20.459 195.685 18.832 190.626 23.388 Z " fill-rule="evenodd" fill="rgb(1,174,151)" />
        <path d=" M 142.679 86.366 C 141.849 91.464 142.649 90.895 145.452 94.279 C 146.447 95.48 146.241 95.72 147.763 96.582 C 149.311 97.46 151.099 97.803 152.617 98.686 C 154.543 99.806 155.331 101.647 157.009 102.859 C 158.412 103.873 160.496 104.705 161.169 106.398 C 160.975 107.519 161.199 109.438 161.863 110.404 L 163.326 111.306 C 164.359 111.168 165.706 110.608 166.485 109.903 L 168.334 109.903 C 171.024 111.912 171.945 118.592 174.498 119.919 C 175.03 120.196 175.859 120.181 176.424 120.42 C 177.339 120.808 178.52 121.538 179.429 122.023 C 180.896 122.805 182.122 124.045 183.589 124.827 C 184.016 125.054 184.747 125.401 185.207 125.529 C 186.657 125.93 188.106 125.612 189.522 125.829 C 191.317 126.103 192.626 127.49 194.144 128.132 C 198.075 129.796 204.397 130.259 208.012 132.739 C 209.93 134.055 210.444 136.717 211.634 138.448 C 213.323 140.91 216.951 141.912 219.492 140.252 C 221.369 140.342 223.183 141.043 224.808 141.955 C 226.914 141.895 228.189 140.619 230.047 140.252 C 234.332 139.404 235.961 143.314 238.445 145.46 C 246.844 146.113 243.94 147.925 249.154 150.768 C 252.542 150.31 253.235 152.063 255.857 152.972 C 257.045 153.383 258.171 153.436 259.324 154.073 C 261.26 155.143 263.025 156.834 265.257 157.379 C 266.325 157.639 274.034 157.736 275.195 157.579 C 276.356 157.421 277.655 156.565 278.74 156.477 C 280.087 156.368 281.746 156.938 283.208 156.878 L 284.364 155.776 L 285.982 155.476 L 287.599 156.277 L 288.524 155.776 L 288.293 153.673 C 287.653 153.001 286.809 151.87 286.059 151.369 C 285.063 150.703 283.697 150.551 282.592 150.167 C 280.277 149.364 275.381 146.958 273.192 145.76 C 270.746 144.421 268.988 141.803 266.643 140.552 C 264.733 139.533 262.422 140.247 260.48 139.851 C 259.459 139.643 258.448 138.638 257.552 138.148 C 256.024 137.312 254.237 136.865 252.698 136.045 C 250.743 135.003 249.107 133.256 247.152 132.239 C 245.115 131.18 242.971 130.334 240.91 129.234 C 238.212 127.795 234.857 127.887 232.127 126.43 L 231.202 125.028 C 226.639 123.114 227.509 124.566 224.577 120.12 C 220.451 117.812 221.249 120.549 217.874 115.212 C 214.47 115.483 214.221 113.483 211.864 112.407 C 209.84 112.453 207.908 113.409 205.932 113.409 C 204.963 113.409 204.169 113.014 203.389 112.508 C 201.269 111.129 197.254 109.387 194.838 108.602 C 194.287 108.423 193.516 108.514 192.989 108.301 C 192.068 107.931 191.153 106.872 190.215 106.398 C 186.814 104.679 183.439 102.805 179.814 101.49 C 178.629 101.06 177.276 100.944 176.116 100.488 C 172.285 98.983 167.346 96.276 163.25 95.881 C 161.79 95.741 160.338 95.911 158.858 95.681 C 157.321 94.083 156.093 92.024 154.697 90.573 C 151.726 87.483 146.792 85.904 142.679 86.366 Z " fill-rule="evenodd" fill="rgb(1,174,151)" />
        <path d=" M 130.949 200.461 C 133.777 201.366 136.442 198.047 139.392 198.315 C 142.266 200.958 145.568 198.255 148.66 198.81 C 152.03 201.484 153.587 200.213 157.293 200.213 C 159.234 200.213 161.198 200.543 163.176 200.543 C 167.773 200.543 173.202 199.468 174.559 205.054 C 174.89 206.415 175.224 207.613 175.067 209.043 L 176.02 209.951 C 181.768 210.997 185.121 201.821 189.604 200.625 C 190.341 200.43 198.861 200.663 199.634 200.873 C 203.079 201.806 204.227 203.347 208.521 203.018 C 208.977 203.666 210.152 204.282 210.933 204.339 C 213.339 203.509 216.577 203.608 219.122 203.679 C 220.045 202.866 222.439 200.841 223.121 200.131 C 223.526 199.267 223.553 197.722 223.248 196.83 C 222.114 195.918 221.816 194.495 220.836 193.529 C 220.163 192.865 219.17 192.638 218.424 192.126 C 217.22 191.3 216.918 189.865 215.504 189.237 C 212.233 187.786 209.084 189.873 205.855 189.484 C 204.017 189.264 201.404 188.794 199.761 187.917 C 198.994 187.508 198.247 186.757 197.349 186.597 C 196.76 186.492 196.045 186.669 195.444 186.597 C 190.805 186.038 188.726 184.268 185.414 181.398 C 184.735 180.81 184.197 180.018 183.32 179.665 C 182.334 179.268 181.376 179.281 180.399 178.674 C 179.638 177.547 178.903 176.381 178.368 175.126 L 177.035 174.465 C 171.265 176.168 170.977 169.638 166.053 170.999 C 165.093 169.31 163.801 167.16 162.181 166.048 C 157.078 162.547 146.156 158.868 140.026 157.796 C 136.5 157.179 133.85 158.848 130.314 157.631 C 129.293 157.821 128.435 158.497 127.521 158.704 C 126.502 158.934 125.29 158.46 124.283 158.538 C 119.824 158.887 115.105 163.148 112.35 166.296 C 111.558 167.2 112.036 173.898 112.603 175.208 C 112.968 176.052 113.762 176.706 114 177.684 C 114.28 178.838 113.911 180.023 114 181.15 C 114.153 183.084 115.445 183.279 116.095 184.781 C 116.962 186.786 116.644 188.375 118.19 190.31 C 119.396 191.821 121.289 192.335 122.57 193.611 C 122.87 193.911 123.027 194.473 123.332 194.766 C 124.841 196.222 127.577 196.793 129.171 198.398 C 129.82 199.05 130.176 199.857 130.949 200.461 Z " fill-rule="evenodd" fill="rgb(1,174,151)" />
        <path d=" M 76.102 134.112 C 74.876 134.411 74.717 135.106 73.881 135.679 C 72.569 136.579 71.72 136.838 70.643 138.238 C 68.546 140.963 68.804 144.423 64.613 145.582 C 63.481 145.896 60.347 145.945 59.153 145.83 C 57.55 145.675 55.985 144.856 54.392 144.674 C 51.168 144.306 47.413 145.812 47.791 149.626 C 48.673 151.462 52.873 153.649 54.837 154 C 55.351 154.091 56.068 154.011 56.551 154.165 C 58.059 154.644 58.459 155.985 60.487 155.898 L 61.438 154.825 L 62.772 155.073 C 63.819 156.479 64.279 157.628 64.93 159.226 C 65.173 159.824 65.646 160.221 65.882 160.767 C 66.702 162.661 66.062 165.84 66.136 167.946 L 67.025 168.937 L 68.358 169.102 C 68.921 168.731 69.519 168.385 70.135 168.112 C 70.777 168.601 73.212 169.881 73.944 170.009 C 75.198 170.229 76.147 169.764 77.308 169.597 C 79.185 169.326 80.876 169.971 82.704 169.926 C 84.301 169.888 86.201 169.178 87.783 169.349 C 88.437 169.42 89.736 170.191 90.195 170.67 C 91.792 170.823 93.668 171.25 95.21 170.67 L 96.099 169.597 C 95.346 169.676 94.149 169.231 93.623 168.689 C 92.316 166.286 92.499 162.118 95.464 160.932 C 97.324 160.188 98.307 162.246 102.446 160.354 C 102.775 159.533 102.693 158.125 102.446 157.301 C 101.603 156.196 100.303 155.701 99.399 154.66 C 98.98 153.05 99.576 151.439 99.209 149.791 L 99.907 148.636 C 99.81 148.41 99.452 147.467 99.336 147.315 L 98.616 146.765 C 97.08 145.59 95.683 144.036 94.067 143.024 L 90.195 143.024 C 88.21 141.917 86.687 140.198 84.736 139.063 C 81.007 136.894 79.765 137.684 76.102 134.112 Z " fill-rule="evenodd" fill="rgb(1,174,151)" />
        <path d=" M 24.843 37.683 C 23.321 36.357 18.5 36.878 16.617 37.255 C 16.098 38.154 15.431 39.514 14.725 40.25 C 12.54 42.522 8.943 42.693 8.226 46.239 C 7.614 49.262 7.399 59.286 6.252 61.318 C 4.851 62.354 2.803 62.868 1.891 64.419 C 1.628 66.219 1.992 69.108 3.783 70.087 L 3.372 72.119 C 2.749 73.011 1.711 73.971 0.74 74.472 L 0 76.29 C 0.238 78.076 1.481 79.796 2.879 80.889 C 3.143 83.508 2.08 86.34 4.853 88.054 C 5.988 91.223 5.735 94.786 8.143 97.465 C 10.428 99.057 17.687 97.93 20.895 98.321 C 22.711 97.512 24.118 96.193 26.242 96.395 C 27.956 97.465 29.937 98.401 32 97.893 L 33.481 96.824 L 34.139 95.112 C 35.474 94.815 36.811 94.423 38.088 93.936 C 38.492 92.728 39.383 91.819 39.816 90.728 C 40.801 88.24 40.245 84.985 41.214 82.386 C 42.034 80.187 44.11 78.253 44.505 75.755 C 44.999 72.62 43.01 67.652 46.479 65.489 C 46.943 64.267 46.773 62.724 46.314 61.532 C 45.539 59.515 44.091 58.912 42.942 57.361 C 41.093 54.865 40.723 50.03 38.335 46.773 L 36.525 46.024 C 31.703 49.001 28.327 47.298 24.761 43.672 C 24.004 42.337 24.471 39.04 24.843 37.683 Z " fill-rule="evenodd" fill="rgb(1,174,151)" />
        <path d=" M 41.886 0.647 L 40.652 1.931 C 40.218 6.219 36.292 8.362 36.374 12.625 C 37.169 15.045 39.857 15.951 40.899 18.186 C 41.773 20.06 41.878 24.757 42.215 27.063 L 43.861 27.277 C 46.539 26.097 47.426 24.638 49.537 22.891 C 50.986 21.693 52.708 21.041 54.144 20.004 C 58.227 17.055 57.517 8.434 55.625 4.497 C 54.954 3.102 54.168 0.576 52.334 0.326 C 50.087 0.021 47.538 0.109 45.259 0.005 C 44.184 -0.043 42.881 0.269 41.886 0.647 Z " fill-rule="evenodd" fill="rgb(1,174,151)" />
    </g>
</svg>