<?xml version="1.0" encoding="UTF-8" standalone="no"?><!-- Generator: Gravit.io --><svg xmlns="http://www.w3.org/2000/svg" xmlns:xlink="http://www.w3.org/1999/xlink" style="isolation:isolate" viewBox="1790 93.071 158 189.6" width="158pt" height="189.6pt"><g><path d=" M 1943.094 226.684 C 1931.149 216.588 1924.3 201.83 1924.3 186.196 L 1924.3 164.171 C 1924.3 136.371 1903.649 113.358 1876.9 109.503 L 1876.9 100.971 C 1876.9 96.602 1873.361 93.071 1869 93.071 C 1864.639 93.071 1861.1 96.602 1861.1 100.971 L 1861.1 109.503 C 1834.343 113.358 1813.7 136.371 1813.7 164.171 L 1813.7 186.196 C 1813.7 201.83 1806.851 216.588 1794.835 226.747 C 1791.762 229.378 1790 233.201 1790 237.246 C 1790 244.87 1796.202 251.071 1803.825 251.071 L 1934.175 251.071 C 1941.799 251.071 1948 244.87 1948 237.246 C 1948 233.201 1946.238 229.378 1943.094 226.684 Z " fill="rgb(1,174,151)"/><path d=" M 1869 282.671 C 1883.307 282.671 1895.275 272.472 1898.025 258.971 L 1839.975 258.971 C 1842.725 272.472 1854.693 282.671 1869 282.671 Z " fill="rgb(1,174,151)"/></g></svg>