<?xml version="1.0" encoding="UTF-8" standalone="no"?>
<!-- Generator: Gravit.io -->
<svg xmlns="http://www.w3.org/2000/svg" xmlns:xlink="http://www.w3.org/1999/xlink" style="isolation:isolate" viewBox="494.057 77.145 513.762 174.225">
    <g>
        <path d=" M 933.912 251.37 C 934.789 249.984 935.387 248.474 935.455 246.697 C 935.654 241.484 936.874 236.508 940.742 233.362 C 945.53 229.467 945.865 222.294 951.771 219.789 C 957.482 217.366 963.635 216.017 968.697 212.401 C 974.859 208 982.184 215.127 988.982 213.102 C 993.543 211.743 998.382 204.915 1003.085 209.503 C 1008.561 214.845 1009.833 205 1003.977 205.722 C 998.544 206.392 993.072 202.101 987.832 204.21 C 981.29 206.844 973.922 207.971 967.26 204.591 C 962.212 202.029 955.504 203.082 952.113 198.401 C 949.053 194.177 941.956 195.929 936.752 195.406 C 929.978 194.725 921.941 196.668 916.488 191.473 C 911.697 186.909 905.608 189.807 900.333 188.373 C 894.515 186.791 889.008 184.882 883.268 183.499 C 877.397 182.086 876.843 174.611 874.083 169.949 C 869.972 163.005 861.069 161.402 854.851 156.757 C 849.9 153.058 851.848 146.283 847.839 142.295 C 842.875 137.357 835.502 134.652 832.626 128.122 C 830.227 122.677 823.713 121.601 818.819 119.246 C 813.82 116.84 809.032 111.503 803.029 113.578 C 791.909 117.423 780.303 117.207 769.069 119.73 C 763.015 121.09 757.009 123.324 750.723 122.729 C 744.72 122.16 738.716 118.498 732.861 121.44 C 726.215 124.779 720.37 129.426 713.838 132.919 C 706.061 137.077 696.553 136.418 688.202 139.283 C 681.407 141.613 674.387 141.005 668.243 138.103 C 659.571 134.007 650.167 137.048 641.703 133.419 C 636.197 131.058 633.918 122.952 627.184 122.767 C 620.359 122.58 613.376 121.663 608.937 116.655 C 604.268 111.388 599.57 106.376 595.637 100.617 C 592.029 95.333 588.235 90.879 584.054 86.512 C 581.012 83.334 577.835 78.079 572.729 79.723 C 566.142 81.845 560.838 76.438 554.574 77.224 C 547.97 78.052 545.87 85.74 541.631 90.029 C 538.055 93.647 533.347 96.013 530.162 100.002 C 524.177 107.498 516.02 112.807 510.479 120.645 C 506.747 125.923 502.019 129.824 496.822 133.176 C 491.25 136.77 494.955 144.801 500.394 145.609 C 506.339 146.493 507.319 154.398 508.451 159.673 C 509.644 165.233 511.199 170.61 511.22 176.204 C 511.243 182.786 517.217 186.513 520.758 191.173 C 524.392 195.955 527.464 200.886 531.987 204.616 C 537.294 208.994 537.823 216.299 543.21 220.276 C 547.338 223.323 552.341 224.985 556.492 228.006 C 564.479 233.821 574.18 236.83 582.803 241.653 C 588.662 244.931 594.942 247.442 600.396 251.37 L 933.912 251.37 L 933.912 251.37 Z " fill="rgb(1,174,151)" />
    </g>
</svg>