<?xml version="1.0" encoding="UTF-8" standalone="no"?>
<!-- Generator: Gravit.io -->
<svg xmlns="http://www.w3.org/2000/svg" xmlns:xlink="http://www.w3.org/1999/xlink" style="isolation:isolate" viewBox="0 0 316.638 251.37">
    <g>
        <path d=" M 246.163 251.37 C 247.002 239.858 240.408 217.275 244.939 209.079 C 247.577 203.145 239.37 189.262 232.409 176.45 C 230.37 169.512 243.032 174.579 246.807 169.291 C 254.603 163.375 252.37 158.45 257.215 151.138 C 260.952 144.892 267.62 143.825 274.28 139.412 C 281.094 134.901 292.245 125.2 302.016 116.482 C 307.292 111.53 307.682 105.762 312.186 98.029 C 314.057 93.637 319.682 84.012 314.495 80.45 C 304.432 74.512 283.053 69.915 279.495 67.45 C 275.745 62.825 279.37 42.325 277.058 35.242 C 275.87 24.7 268.995 26.825 266.008 31.037 C 256.429 35.775 246.041 28.495 239.498 27.761 C 226.133 24.882 205.833 19.75 202.201 26.506 C 201.958 31.703 205.329 38.799 197.864 41.647 C 191.533 47.445 190.37 46.95 181.495 46.45 C 173.62 44.45 175.559 41.393 167.27 39.551 C 145.745 41.2 133.245 37.7 119.495 35.634 C 105.826 35.634 107.675 51.986 97.525 52.067 C 87.78 51.249 81.332 37.985 81.79 32.435 C 84.648 25.09 93.557 22.881 96.04 16.574 C 96.854 3.832 80.469 17.601 83.364 4.723 C 84.507 -2.836 80.718 0.765 76.482 1.503 C 67.702 8.987 56.406 7.826 45.576 9.562 C 35.916 11.281 32.407 12.135 25.79 18.182 C 19.935 24.147 11.053 32.435 11.053 32.435 C 5.62 37.316 0.908 45.006 0 53.551 C 1.23 63.166 8.376 69.695 8.22 78.214 C 8.948 84.239 11.936 93.495 11.79 93.342 C 12.288 100.038 13.861 105.194 14.001 111.807 C 16.631 122.24 19.218 133.549 20.411 145.057 C 20.486 151.43 29.083 168.036 28.551 173.233 C 26.362 192.493 21.888 208.888 16.948 227.721 C 15.889 230.216 17.27 229.525 16.996 231.152 C 15.031 237.778 13.46 244.554 11.969 251.37 L 246.163 251.37 L 246.163 251.37 Z " fill="rgb(1,174,151)" />
    </g>
</svg>